<svg height="512" viewBox="0 0 64 64" width="512" xmlns="http://www.w3.org/2000/svg"><g id="Layer_13" data-name="Layer 13"><rect fill="#4472b0" height="52" rx="3" width="44" x="10" y="2"/><path d="m14 6h36v44h-36z" fill="#c7e2fb"/><path d="m14 40a24.58 24.58 0 0 0 7 1c14.36 0 26-12.31 26-27.5a28.94 28.94 0 0 0 -1-7.5h-32z" fill="#ebf7fe"/><path d="m25 54h14v4h-14z" fill="#c1c8d1"/><path d="m37 63v-5h-10v5z" fill="#a0a8b2"/><path d="m20 26a2 2 0 0 1 -2-2v-7a5 5 0 0 1 5-5h18a5 5 0 0 1 5 5v7a2 2 0 0 1 -2 2z" fill="#f2c351"/><g fill="#a0a8b2"><circle cx="24" cy="26" r="2"/><circle cx="40" cy="26" r="2"/><path d="m22 16h4v4h-4z"/><path d="m30 16h4v4h-4z"/><path d="m38 16h4v4h-4z"/></g><path d="m51 1h-38a4 4 0 0 0 -4 4v46a4 4 0 0 0 4 4h11v3a1 1 0 0 0 1 1h1v4h2v-4h8v4h2v-4h1a1 1 0 0 0 1-1v-3h11a4 4 0 0 0 4-4v-46a4 4 0 0 0 -4-4zm-13 56h-12v-2h12zm15-6a2 2 0 0 1 -2 2h-38a2 2 0 0 1 -2-2v-46a2 2 0 0 1 2-2h38a2 2 0 0 1 2 2z"/><path d="m50 5h-36a1 1 0 0 0 -1 1v44a1 1 0 0 0 1 1h36a1 1 0 0 0 1-1v-44a1 1 0 0 0 -1-1zm-1 2v26h-34v-26zm-34 42v-14h34v14z"/><path d="m20 27h1.18a3 3 0 0 0 5.64 0h10.36a3 3 0 0 0 5.64 0h1.18a3 3 0 0 0 3-3v-7a6 6 0 0 0 -6-6h-18a6 6 0 0 0 -6 6v7a3 3 0 0 0 3 3zm4 0a1 1 0 1 1 1-1 1 1 0 0 1 -1 1zm16 0a1 1 0 1 1 1-1 1 1 0 0 1 -1 1zm-21-10a4 4 0 0 1 4-4h18a4 4 0 0 1 4 4v7a1 1 0 0 1 -1 1h-1.18a3 3 0 0 0 -5.64 0h-10.36a3 3 0 0 0 -5.64 0h-1.18a1 1 0 0 1 -1-1z"/><path d="m22 21h4a1 1 0 0 0 1-1v-4a1 1 0 0 0 -1-1h-4a1 1 0 0 0 -1 1v4a1 1 0 0 0 1 1zm1-4h2v2h-2z"/><path d="m30 21h4a1 1 0 0 0 1-1v-4a1 1 0 0 0 -1-1h-4a1 1 0 0 0 -1 1v4a1 1 0 0 0 1 1zm1-4h2v2h-2z"/><path d="m38 21h4a1 1 0 0 0 1-1v-4a1 1 0 0 0 -1-1h-4a1 1 0 0 0 -1 1v4a1 1 0 0 0 1 1zm1-4h2v2h-2z"/><path d="m24 37h-3a1 1 0 0 0 -1 1v8a1 1 0 0 0 1 1h3a3 3 0 0 0 3-3 3 3 0 0 0 -.78-2 3 3 0 0 0 .78-2 3 3 0 0 0 -3-3zm-2 2h2a1 1 0 0 1 0 2h-2zm2 6h-2v-2h2a1 1 0 0 1 0 2z"/><path d="m34 43.5a1.5 1.5 0 0 1 -3 0v-6.5h-2v6.5a3.5 3.5 0 0 0 7 0v-6.5h-2z"/><path d="m41 39a1 1 0 0 1 1 1h2a3 3 0 0 0 -6 0 2.58 2.58 0 0 0 1.45 2.34l2.21 1.11a.6.6 0 0 1 .34.55 1 1 0 0 1 -2 0h-2a3 3 0 0 0 6 0 2.58 2.58 0 0 0 -1.45-2.34l-2.21-1.11a.6.6 0 0 1 -.34-.55 1 1 0 0 1 1-1z"/></g></svg>